<svg width="1813" height="720" viewBox="0 0 1813 720" fill="none" xmlns="http://www.w3.org/2000/svg">
<path d="M800.354 47.213C811.459 47.213 820.461 38.211 820.461 27.1065C820.461 16.002 811.459 7 800.354 7C789.25 7 780.248 16.002 780.248 27.1065C780.248 38.211 789.25 47.213 800.354 47.213Z" fill="white"/>
<path d="M796.148 112.994C796.148 91.0266 778.42 73.2188 756.551 73.2188C734.682 73.2188 716.953 91.0266 716.953 112.994" stroke="white" stroke-width="23.8108" stroke-linecap="round"/>
<path d="M658 113C658 58.2787 702.122 13.918 756.55 13.918" stroke="white" stroke-width="26.1498" stroke-linecap="round"/>
<path d="M855.099 112.999C855.099 90.9163 847.914 70.5207 835.766 54.0469" stroke="white" stroke-width="26.1498" stroke-linecap="round"/>
<path d="M95.4051 414.476V703.678H0V414.476H95.4051ZM0 340.933V87.5078H95.4051V340.933H0ZM95.4051 414.476V340.933H244.476C299.466 340.933 338.556 330.332 361.744 309.13C385.596 287.266 397.521 255.464 397.521 213.723C397.521 172.645 385.596 141.506 361.744 120.304C338.556 98.4399 299.466 87.5078 244.476 87.5078H95.4051V8.00195H272.302C347.169 8.00195 403.484 26.8846 441.249 64.6499C479.676 102.415 498.889 151.112 498.889 210.742C498.889 258.445 486.632 299.855 462.118 334.97C437.605 369.422 400.834 392.943 351.806 405.531L538.641 703.678H433.298L252.426 414.476H95.4051Z" fill="white"/>
<path d="M607.322 562.555L692.789 322.05C704.715 289.254 718.628 248.507 718.628 234.594C718.628 221.674 713.659 217.699 705.709 217.699C675.895 217.699 632.168 270.371 594.403 332.982H570.552C616.267 244.532 690.802 165.026 763.35 165.026C799.126 165.026 816.021 190.865 816.021 219.686C816.021 245.526 803.102 280.309 787.201 324.038L700.74 565.537C692.789 587.401 679.87 622.185 679.87 636.098C679.87 651.005 683.845 658.956 697.758 658.956C734.529 658.956 779.25 596.345 812.046 523.796H834.903C799.126 612.246 734.529 712.622 653.037 712.622C600.366 712.622 582.477 684.795 582.477 649.018C582.477 626.16 593.409 602.308 607.322 562.555Z" fill="white"/>
<path d="M951.652 549.635C951.652 574.812 963.578 597.008 987.429 616.222C1011.28 635.436 1041.76 645.042 1078.86 645.042C1110.66 645.042 1137.16 638.417 1158.36 625.166C1180.23 611.915 1191.16 594.357 1191.16 572.493C1191.16 561.893 1188.18 552.286 1182.21 543.673C1176.91 534.397 1170.62 526.778 1163.33 520.815C1156.71 514.852 1146.11 508.889 1131.53 502.926C1116.95 496.3 1104.7 491.331 1094.76 488.018C1084.82 484.706 1070.25 480.068 1051.03 474.105C1023.21 465.492 1001.01 458.204 984.447 452.241C968.547 445.615 950.658 436.671 930.782 425.408C910.906 413.482 895.999 399.568 886.061 383.667C876.785 367.103 872.148 348.221 872.148 327.019C872.148 285.279 890.036 248.838 925.813 217.699C961.59 186.559 1008.96 170.989 1067.93 170.989C1123.58 170.989 1169.29 184.24 1205.07 210.742C1241.51 237.244 1263.71 273.684 1271.66 320.062H1175.26C1174.6 303.499 1164.99 287.266 1146.44 271.365C1127.89 255.464 1102.71 247.513 1070.91 247.513C1041.76 247.513 1017.57 253.807 998.361 266.396C979.81 278.984 970.534 296.211 970.534 318.075C970.534 331.326 976.828 343.252 989.417 353.852C1002.67 363.791 1016.58 371.41 1031.16 376.71C1046.39 382.011 1067.93 388.636 1095.75 396.587C1119.6 403.212 1138.16 408.844 1151.41 413.482C1164.66 417.457 1181.22 424.414 1201.1 434.352C1221.64 443.628 1237.2 453.235 1247.81 463.173C1259.07 472.449 1268.68 485.037 1276.63 500.938C1285.24 516.839 1289.55 534.397 1289.55 553.611C1289.55 603.964 1270.66 644.38 1232.9 674.857C1195.13 704.672 1143.12 719.579 1076.87 719.579C1014.59 719.579 964.24 705.334 925.813 676.845C888.049 648.355 864.529 605.952 855.253 549.635H951.652Z" fill="white"/>
<path d="M1326.04 397.581C1333.99 326.688 1359.83 271.365 1403.55 231.612C1447.94 191.197 1505.58 170.989 1576.47 170.989C1643.39 170.989 1699.38 193.516 1744.43 238.569C1790.14 282.96 1813 349.877 1813 439.321V469.136H1424.42V397.581H1715.61C1712.96 349.215 1698.38 312.112 1671.88 286.272C1645.38 260.433 1613.58 247.513 1576.47 247.513C1532.75 247.513 1497.96 260.764 1472.13 287.266C1446.29 313.106 1430.39 349.877 1424.42 397.581H1326.04ZM1324.05 469.136H1424.42C1427.07 524.127 1441.65 566.531 1468.15 596.345C1494.65 626.16 1532.42 641.067 1581.44 641.067C1644.38 641.067 1687.78 615.228 1711.63 563.549H1812.01C1774.9 666.244 1698.05 717.592 1581.44 717.592C1505.91 717.592 1445.29 695.727 1399.58 651.999C1354.53 607.608 1329.35 546.654 1324.05 469.136Z" fill="white"/>
</svg>
