<svg width="375" height="161" viewBox="0 0 375 161" fill="none" xmlns="http://www.w3.org/2000/svg">
<path d="M19.6988 97.8785V157.591H0V97.8785H19.6988ZM0 82.694V30.369H19.6988V82.694H0ZM19.6988 97.8785V82.694H50.4782C61.8324 82.694 69.9035 80.5053 74.6914 76.1277C79.6161 71.6134 82.0784 65.0472 82.0784 56.4289C82.0784 47.9475 79.6161 41.518 74.6914 37.1405C69.9035 32.6262 61.8324 30.369 50.4782 30.369H19.6988V13.9533H56.2237C71.6818 13.9533 83.3096 17.8521 91.1071 25.6495C99.0413 33.447 103.008 43.5016 103.008 55.8133C103.008 65.6628 100.478 74.2126 95.4162 81.4628C90.3547 88.5763 82.7624 93.4326 72.6394 96.0318L111.216 157.591H89.4655L52.1198 97.8785H19.6988Z" fill="#181818"/>
<path d="M169.309 25.4443C161.512 25.4443 156.177 20.3144 156.177 12.7222C156.177 4.9247 161.512 0 169.309 0C177.107 0 182.442 4.9247 182.442 12.7222C182.442 20.3144 177.107 25.4443 169.309 25.4443ZM125.397 128.453L143.044 78.7953C145.506 72.0238 148.379 63.6108 148.379 60.738C148.379 58.0705 147.353 57.2497 145.712 57.2497C139.556 57.2497 130.527 68.1251 122.73 81.0525H117.805C127.244 62.79 142.634 46.3743 157.613 46.3743C165 46.3743 168.488 51.7094 168.488 57.6601C168.488 62.9952 165.821 70.1771 162.538 79.2057L144.686 129.068C143.044 133.583 140.377 140.765 140.377 143.637C140.377 146.715 141.197 148.357 144.07 148.357C151.662 148.357 160.896 135.429 167.668 120.45H172.387C165 138.713 151.662 159.437 134.836 159.437C123.961 159.437 120.267 153.692 120.267 146.305C120.267 141.585 122.525 136.661 125.397 128.453Z" fill="#181818"/>
<path d="M196.493 125.785C196.493 130.984 198.955 135.566 203.88 139.533C208.805 143.5 215.097 145.484 222.758 145.484C229.324 145.484 234.796 144.116 239.174 141.38C243.688 138.644 245.945 135.019 245.945 130.505C245.945 128.316 245.33 126.332 244.098 124.554C243.004 122.639 241.704 121.066 240.2 119.835C238.832 118.603 236.643 117.372 233.633 116.141C230.624 114.773 228.093 113.747 226.041 113.063C223.989 112.379 220.98 111.421 217.013 110.19C211.267 108.412 206.684 106.907 203.264 105.676C199.981 104.308 196.288 102.461 192.184 100.136C188.08 97.6733 185.002 94.8006 182.95 91.5175C181.035 88.0975 180.077 84.1988 180.077 79.8213C180.077 71.203 183.771 63.6792 191.158 57.2497C198.545 50.8202 208.326 47.6055 220.501 47.6055C231.992 47.6055 241.431 50.3414 248.818 55.8133C256.342 61.2852 260.924 68.8091 262.566 78.3849H242.662C242.525 74.965 240.542 71.6134 236.711 68.3303C232.881 65.0472 227.683 63.4056 221.116 63.4056C215.097 63.4056 210.104 64.7052 206.137 67.3043C202.307 69.9035 200.392 73.4602 200.392 77.9745C200.392 80.7105 201.691 83.1728 204.29 85.3616C207.026 87.4135 209.899 88.9867 212.909 90.0811C216.055 91.1755 220.501 92.5434 226.246 94.185C231.171 95.553 235.001 96.7158 237.737 97.6733C240.473 98.4941 243.893 99.9305 247.997 101.982C252.238 103.898 255.453 105.881 257.641 107.933C259.967 109.848 261.95 112.447 263.592 115.731C265.37 119.014 266.26 122.639 266.26 126.606C266.26 137.003 262.361 145.347 254.563 151.64C246.766 157.796 236.027 160.874 222.348 160.874C209.489 160.874 199.092 157.933 191.158 152.05C183.36 146.168 178.504 137.413 176.589 125.785H196.493Z" fill="#181818"/>
<path d="M273.794 94.3902C275.436 79.7529 280.771 68.3303 289.799 60.1225C298.965 51.7778 310.866 47.6055 325.504 47.6055C339.32 47.6055 350.879 52.2566 360.182 61.5588C369.621 70.7243 374.34 84.5408 374.34 103.008V109.164H294.109V94.3902H354.231C353.684 84.404 350.674 76.7433 345.202 71.4082C339.73 66.0731 333.164 63.4056 325.504 63.4056C316.475 63.4056 309.293 66.1415 303.958 71.6134C298.623 76.9485 295.34 84.5408 294.109 94.3902H273.794ZM273.384 109.164H294.109C294.656 120.519 297.665 129.274 303.137 135.429C308.609 141.585 316.407 144.663 326.53 144.663C339.525 144.663 348.486 139.328 353.41 128.658H374.135C366.474 149.862 350.606 160.463 326.53 160.463C310.935 160.463 298.418 155.949 288.979 146.92C279.676 137.755 274.478 125.17 273.384 109.164Z" fill="#181818"/>
</svg>
