<svg width="57" height="57" viewBox="0 0 57 57" fill="none" xmlns="http://www.w3.org/2000/svg">
<path d="M43.1514 28.5L40.2082 28.6056C33.8965 28.8322 28.8322 33.8965 28.6056 40.2082L28.5 43.1514L28.3943 40.2082C28.1678 33.8965 23.1035 28.8322 16.7918 28.6056L13.8486 28.5L16.7918 28.3944C23.1035 28.1678 28.1678 23.1035 28.3943 16.7918L28.5 13.8486L28.6056 16.7918C28.8322 23.1035 33.8965 28.1678 40.2082 28.3944L43.1514 28.5Z" fill="#444444"/>
<path d="M43.1514 28.5L40.2082 28.6056C33.8965 28.8322 28.8322 33.8965 28.6056 40.2082L28.5 43.1514M43.1514 28.5L40.2082 28.3944C33.8965 28.1678 28.8322 23.1035 28.6056 16.7918L28.5 13.8486M43.1514 28.5L57 28.5M28.5 43.1514L28.3943 40.2082C28.1678 33.8965 23.1035 28.8322 16.7918 28.6056L13.8486 28.5M28.5 43.1514V57M13.8486 28.5L16.7918 28.3944C23.1035 28.1678 28.1678 23.1035 28.3943 16.7918L28.5 13.8486M13.8486 28.5L0 28.5M28.5 13.8486V0" stroke="#444444" stroke-width="3.51745" stroke-linejoin="round"/>
</svg>
